<svg xmlns="http://www.w3.org/2000/svg" width="64" height="64" viewBox="0 0 64 64" fill="none">
  <defs>
    <linearGradient id="bg" x1="8" y1="6" x2="56" y2="58" gradientUnits="userSpaceOnUse">
      <stop stop-color="#FB923C"/>
      <stop offset="0.55" stop-color="#F59E0B"/>
      <stop offset="1" stop-color="#FDE68A"/>
    </linearGradient>
    <linearGradient id="glow" x1="18" y1="16" x2="46" y2="46" gradientUnits="userSpaceOnUse">
      <stop stop-color="#FFF7ED" stop-opacity="0.95"/>
      <stop offset="1" stop-color="#FFEDD5" stop-opacity="0.35"/>
    </linearGradient>
  </defs>

  <rect x="6" y="6" width="52" height="52" rx="16" fill="#1C1917"/>
  <rect x="8" y="8" width="48" height="48" rx="14" fill="url(#bg)"/>
  <rect x="11" y="11" width="42" height="42" rx="12" fill="url(#glow)" opacity="0.22"/>

  <path
    d="M22 18H29V29.2L40.4 18H49L36.2 30.8L50 46H41.2L29 32.4V46H22V18Z"
    fill="#1C1917"
  />

  <path
    d="M18 20.5C18 19.12 19.12 18 20.5 18H22V46H20.5C19.12 46 18 44.88 18 43.5V20.5Z"
    fill="#FFF7ED"
    opacity="0.55"
  />
</svg>
